<svg t="1693205809016" class="icon" viewBox="0 0 1024 1024" version="1.1" xmlns="http://www.w3.org/2000/svg" p-id="4290" width="16" height="16"><path d="M882.56 192H333.44A142.08 142.08 0 0 0 192 333.44v549.12A142.08 142.08 0 0 0 333.44 1024h549.12A142.08 142.08 0 0 0 1024 882.56V333.44A142.08 142.08 0 0 0 882.56 192z m70.4 690.56a70.4 70.4 0 0 1-70.4 70.4H333.44a70.4 70.4 0 0 1-70.4-70.4V333.44a70.4 70.4 0 0 1 70.4-70.4h549.12a70.4 70.4 0 0 1 70.4 70.4z" fill="#707070" p-id="4291"></path><path d="M794.88 74.24a37.12 37.12 0 1 0 0-74.24H167.04A167.68 167.68 0 0 0 0 167.04v627.84a37.12 37.12 0 1 0 74.24 0V167.04a92.8 92.8 0 0 1 92.8-92.8z m0 373.76H421.12a37.12 37.12 0 0 0 0 74.24h374.4a37.12 37.12 0 0 0 0-74.24z m0 256H421.12a37.12 37.12 0 0 0 0 74.24h374.4a37.12 37.12 0 0 0 0-74.24z" fill="#707070" p-id="4292"></path></svg>